<svg width="898" height="900" viewBox="0 0 898 900" fill="none" xmlns="http://www.w3.org/2000/svg">
<path d="M895.5 406.05C896.73 419.63 897.58 433.33 897.58 447.24C897.58 433.33 896.73 419.64 895.5 406.05Z" fill="white"/>
<path d="M574.65 450C574.65 474.853 567.28 499.148 553.471 519.812C539.663 540.475 520.037 556.58 497.075 566.089C474.113 575.598 448.847 578.084 424.472 573.233C400.097 568.381 377.709 556.41 360.138 538.834C342.567 521.257 330.603 498.865 325.759 474.489C320.916 450.112 323.41 424.847 332.926 401.888C342.442 378.929 358.553 359.308 379.222 345.506C399.89 331.705 424.187 324.342 449.04 324.35C482.358 324.358 514.309 337.6 537.865 361.163C561.421 384.727 574.653 416.682 574.65 450Z" fill="white"/>
<path d="M230 405.695C230 405.695 105.25 865.335 605.26 869.335C762.14 810.935 877.74 667.755 895.26 495.135C896.47 483.195 896.83 471.015 897.1 458.815C897.15 455.605 897.58 452.485 897.58 449.255C897.58 435.355 896.73 421.645 895.5 408.065C763.4 928.095 179 724.405 230 405.695V405.695Z" fill="white"/>
<path d="M488.54 235.085C488.54 235.085 23.0001 105.075 30.1601 612.695C54.024 674.038 91.0583 729.396 138.65 774.865C140.65 776.755 142.72 778.545 144.74 780.405C158.202 792.816 172.408 804.394 187.28 815.075C189.59 816.725 191.76 818.545 194.08 820.155C209.811 830.913 226.215 840.652 243.19 849.315C248.12 851.855 253.19 854.175 258.19 856.545C272.798 863.423 287.77 869.498 303.04 874.745C306.79 876.025 310.37 877.625 314.17 878.815C332.477 884.412 351.125 888.821 370 892.015C375.71 893.015 381.48 893.855 387.26 894.655C406.841 897.483 426.587 899.016 446.37 899.245C447.13 899.245 447.86 899.365 448.62 899.365C463.54 899.365 478.27 898.565 492.8 897.135C-29.5399 772.565 169 188.485 488.54 235.085Z" fill="white"/>
<path d="M670 475.815C670 475.815 780.14 11.475 284.36 32.215C118.11 97.885 0.420044 259.645 0.420044 449.215C0.574644 469.629 2.11485 490.009 5.03004 510.215C109.37 -15.125 703.8 155.015 670 475.815Z" fill="white"/>
<path d="M431.95 675.635C431.95 675.635 898.3 736.515 869.11 293.125C805.64 122.455 641.76 0.63501 449 0.63501C421.705 0.740489 394.476 3.32781 367.65 8.36501C887.29 72.155 752.23 680.175 431.95 675.635Z" fill="white"/>
</svg>
